<?xml version="1.0" encoding="utf-8"?>
<!-- Generator: Adobe Illustrator 27.3.1, SVG Export Plug-In . SVG Version: 6.00 Build 0)  -->
<svg version="1.1" id="Layer_1" xmlns="http://www.w3.org/2000/svg" xmlns:xlink="http://www.w3.org/1999/xlink" x="0px" y="0px"
	 viewBox="0 0 2000 2000" style="enable-background:new 0 0 2000 2000;" xml:space="preserve">
<style type="text/css">
	.st0{fill:#FFFFFF;}
	.st1{clip-path:url(#SVGID_00000147925077378916696930000017652818519469577607_);}
	.st2{fill:#FF6200;}
</style>
<rect x="-200" y="-200" class="st0" width="2400" height="2400"/>
<rect x="-200" y="-200" class="st0" width="2400" height="2400"/>
<g>
	<defs>
		<rect id="SVGID_1_" x="320" y="28.4" width="1420" height="1942"/>
	</defs>
	<clipPath id="SVGID_00000035496331510974513770000015097966373805420420_">
		<use xlink:href="#SVGID_1_"  style="overflow:visible;"/>
	</clipPath>
	<g style="clip-path:url(#SVGID_00000035496331510974513770000015097966373805420420_);">
		<path class="st2" d="M1015.4,28.9c39.4-0.3,80.3,1.2,119.4,6.8c84.4,12,163.3,42,237.6,83c74.5,41.1,138.5,96.2,193.4,160.9
			c65.9,77.7,116.5,166.7,144.7,264.8c18.5,64.6,28.4,132.7,29.1,199.9c0.1,13.1,0.7,26.7-0.3,39.7c-2,24.1-7.2,47.3-12.5,70.8
			c-16.2,72.8-41.1,142.4-70.1,211c-30.1,71.2-64.4,139.9-102.2,207.3c-36.4,64.9-75.6,127.7-116.1,190.1
			c-18.7,28.7-37,57.7-56.5,85.9c-25.9,37.5-52.9,74.1-79.8,110.9c-25,34.2-49.6,68.7-75.4,102.3c-21.2,27.7-43.9,54.4-65.5,81.9
			c-19.3,24.6-39,49-58.9,73.1c-11,13.3-22.2,29-35.6,39.9c-7,5.7-13.7,9.2-22.4,11.7l-14.2,1.8c-12.2,0.4-25.6-3.9-34.7-12.2
			c-17.1-15.9-32.3-36-47.3-54c-35.6-42.8-69.6-86.7-103.4-130.8c-64.2-83.6-127.2-168-186.1-255.4c-21.4-31.7-41.4-64.2-62-96.4
			c-100.8-157.5-193.5-325.5-246.4-505.7c-14.3-48.8-27.9-98.9-29.4-150C315,575.2,389.8,387.2,520.9,249
			c17.9-18.9,37.1-35.9,57-52.7C673.1,116,785,61.2,907.9,39C943.6,32.5,979.1,29.9,1015.4,28.9z M1020.6,401.6
			c-13.6,0.5-27.2,0.9-40.7,2.9c-70.8,10.8-142.5,47.3-191.3,99.8c-63.5,68.4-94.8,154.7-91.5,247.7c3,84.1,40.1,166.9,102.1,223.9
			c65.4,60.2,150.6,95.2,240.2,91.4c17.4-0.7,34.4-1.7,51.7-4.8c72.7-13.1,138-50.1,188-104.5c61.4-66.8,88.6-153.4,84.6-243.2
			c-3.7-84.8-41.9-168.7-105-225.6c-45.2-40.8-102.7-71.2-162.7-82.5C1071.4,402.2,1045.7,401,1020.6,401.6z"/>
	</g>
</g>
</svg>
