<svg xmlns="http://www.w3.org/2000/svg" xmlns:xlink="http://www.w3.org/1999/xlink" width="2000" zoomAndPan="magnify" viewBox="0 0 1500 1499.999933" height="2000" preserveAspectRatio="xMidYMid meet" version="1.0"><defs><clipPath id="2cab8d00e6"><path d="M 240 21.273438 L 1305 21.273438 L 1305 1477.773438 L 240 1477.773438 Z M 240 21.273438 " clip-rule="nonzero"/></clipPath></defs><rect x="-150" width="1800" fill="#ffffff" y="-149.999993" height="1799.99992" fill-opacity="1"/><rect x="-150" width="1800" fill="#ffffff" y="-149.999993" height="1799.99992" fill-opacity="1"/><g clip-path="url(#2cab8d00e6)"><path fill="#ff6200" d="M 761.535156 21.644531 C 791.074219 21.425781 821.792969 22.558594 851.058594 26.734375 C 914.371094 35.765625 973.519531 58.257812 1029.285156 88.988281 C 1085.152344 119.777344 1133.171875 161.15625 1174.351562 209.691406 C 1223.800781 267.976562 1261.730469 334.679688 1282.855469 408.324219 C 1296.753906 456.789062 1304.1875 507.820312 1304.667969 558.234375 C 1304.757812 568.070312 1305.226562 578.226562 1304.410156 588.027344 C 1302.90625 606.074219 1299 623.480469 1295.070312 641.113281 C 1282.902344 695.6875 1264.277344 747.914062 1242.507812 799.328125 C 1219.910156 852.703125 1194.210938 904.273438 1165.832031 954.792969 C 1138.507812 1003.433594 1109.160156 1050.578125 1078.765625 1097.335938 C 1064.757812 1118.890625 1050.984375 1140.582031 1036.378906 1161.742188 C 1016.949219 1189.898438 996.710938 1217.332031 976.558594 1244.953125 C 957.824219 1270.625 939.355469 1296.488281 920.003906 1321.707031 C 904.066406 1342.476562 887.082031 1362.53125 870.867188 1383.113281 C 856.359375 1401.535156 841.636719 1419.847656 826.699219 1437.929688 C 818.480469 1447.875 810.015625 1459.65625 799.964844 1467.859375 C 794.742188 1472.121094 789.679688 1474.78125 783.175781 1476.597656 L 772.492188 1477.929688 C 763.359375 1478.199219 753.257812 1474.992188 746.496094 1468.742188 C 733.640625 1456.84375 722.25 1441.75 711.015625 1428.253906 C 684.328125 1396.191406 658.84375 1363.257812 633.433594 1330.1875 C 585.277344 1267.515625 538.03125 1204.222656 493.84375 1138.644531 C 477.816406 1114.855469 462.796875 1090.484375 447.34375 1066.332031 C 371.78125 948.234375 302.207031 822.191406 262.539062 687.089844 C 251.785156 650.472656 241.585938 612.902344 240.457031 574.554688 C 236.246094 431.390625 292.382812 290.421875 390.667969 186.753906 C 404.097656 172.585938 418.527344 159.824219 433.433594 147.25 C 504.824219 87.027344 588.734375 45.921875 680.890625 29.222656 C 707.714844 24.363281 734.316406 22.390625 761.535156 21.644531 Z M 765.460938 301.230469 C 755.246094 301.601562 745.070312 301.890625 734.949219 303.4375 C 681.835938 311.5625 628.074219 338.917969 591.488281 378.316406 C 543.867188 429.597656 520.355469 494.351562 522.855469 564.105469 C 525.113281 627.183594 552.964844 689.285156 599.445312 732.019531 C 648.519531 777.136719 712.414062 803.421875 779.609375 800.589844 C 792.6875 800.046875 805.441406 799.324219 818.359375 796.992188 C 872.898438 787.148438 921.882812 759.394531 959.351562 718.628906 C 1005.433594 668.496094 1025.796875 603.578125 1022.835938 536.246094 C 1020.039062 472.675781 991.382812 409.75 944.113281 367.015625 C 910.25 336.402344 867.070312 313.640625 822.0625 305.148438 C 803.566406 301.660156 784.253906 300.714844 765.460938 301.230469 Z M 765.460938 301.230469 " fill-opacity="1" fill-rule="nonzero"/></g></svg>